<svg xmlns="http://www.w3.org/2000/svg" viewBox="0 0 181.86 45.76"><defs><style>.cls-1{fill:#1d1d1b;}.cls-2{fill:#81bc48;}</style></defs><g id="Слой_2" data-name="Слой 2"><g id="Слой_1-2" data-name="Слой 1"><path class="cls-1" d="M181.84,12.68v2.43H172v6.68h7.93v2.34H172V31h9.86l0,2.43H169V12.68Z"/><path class="cls-1" d="M120.17,29a.57.57,0,0,1,.43.19l1.19,1.3a8.88,8.88,0,0,1-3.1,2.31,10.65,10.65,0,0,1-4.39.83,10.32,10.32,0,0,1-4.09-.78,8.9,8.9,0,0,1-3.12-2.19,9.59,9.59,0,0,1-2-3.35,12.54,12.54,0,0,1-.7-4.29,12.13,12.13,0,0,1,.73-4.3,9.74,9.74,0,0,1,2.08-3.34,9.51,9.51,0,0,1,3.22-2.18,10.63,10.63,0,0,1,4.13-.78,10,10,0,0,1,3.92.72,10.18,10.18,0,0,1,3,1.93l-1,1.38a.91.91,0,0,1-.24.24.72.72,0,0,1-.39.1,1.12,1.12,0,0,1-.64-.28,9.44,9.44,0,0,0-1-.61,7.07,7.07,0,0,0-3.71-.89,7.3,7.3,0,0,0-2.87.55,6.23,6.23,0,0,0-2.24,1.57A7.11,7.11,0,0,0,108,19.68a10.06,10.06,0,0,0-.52,3.37,10,10,0,0,0,.54,3.4A7.29,7.29,0,0,0,109.48,29a6.24,6.24,0,0,0,2.23,1.57,7.07,7.07,0,0,0,2.76.54,11.64,11.64,0,0,0,1.64-.1,7.39,7.39,0,0,0,1.33-.33,5.32,5.32,0,0,0,1.15-.56,8.6,8.6,0,0,0,1.07-.83,1.67,1.67,0,0,1,.24-.16A.5.5,0,0,1,120.17,29Z"/><path class="cls-1" d="M128.61,12.1V33.43h-2.75V12.1Z"/><path class="cls-1" d="M140.35,18.52a7.75,7.75,0,0,1,2.92.53,6.09,6.09,0,0,1,2.21,1.51,6.79,6.79,0,0,1,1.4,2.38,9.3,9.3,0,0,1,.49,3.13,9.41,9.41,0,0,1-.49,3.14,6.7,6.7,0,0,1-1.4,2.38,6.09,6.09,0,0,1-2.21,1.51,8.34,8.34,0,0,1-5.85,0,6.17,6.17,0,0,1-2.23-1.51,6.72,6.72,0,0,1-1.41-2.38,9.67,9.67,0,0,1-.49-3.14,9.56,9.56,0,0,1,.49-3.13,6.81,6.81,0,0,1,1.41-2.38,6.17,6.17,0,0,1,2.23-1.51A7.8,7.8,0,0,1,140.35,18.52Zm0,13a3.66,3.66,0,0,0,3.15-1.42,6.65,6.65,0,0,0,1-4,6.73,6.73,0,0,0-1-4,3.66,3.66,0,0,0-3.15-1.43,3.7,3.7,0,0,0-3.19,1.43,6.66,6.66,0,0,0-1,4,6.58,6.58,0,0,0,1,4A3.7,3.7,0,0,0,140.35,31.49Z"/><path class="cls-1" d="M165,12.68v2.43h-9.85v6.68h7.94v2.34h-7.94V31H165v2.43H152.13V12.68Z"/><path class="cls-2" d="M77.81,43.76H58.53V19.05A1,1,0,0,0,57,18.21l-8.13,5.24a1,1,0,0,0-.46.84V39.11H45V8.7a1,1,0,0,0-1-1H41.41a1,1,0,0,0-1,1V39.14H38.58V27.74a1,1,0,0,0-.73-1L24.43,23a1,1,0,0,0-1.26,1v9.48H18.89a1,1,0,0,0-1,1v9.29H4.32a1,1,0,0,0,0,2H18.89a1,1,0,0,0,1-1V35.47h4.28a1,1,0,0,0,1-1V25.31L36.58,28.5V40.14a1,1,0,0,0,1,1h3.83a1,1,0,0,0,1-1V9.7H43V40.11a1,1,0,0,0,1,1H49.4a1,1,0,0,0,1-1V24.84l6.13-4V44.76a1,1,0,0,0,1,1H77.81a1,1,0,0,0,0-2Z"/><path class="cls-2" d="M81.6,36A29.56,29.56,0,0,1,80,29a15.94,15.94,0,0,0-2.12-6.42,9.57,9.57,0,0,0-8.09-4,11.84,11.84,0,0,0-2.9.35l-2.27.64-.1,0a19.76,19.76,0,0,0-.2-3.08A19.33,19.33,0,0,0,26.64,14a8.34,8.34,0,0,0-3.78-.28,8.45,8.45,0,0,0-7,6.62,16.62,16.62,0,0,0-2.23.18A16,16,0,0,0,.18,38.72a1,1,0,0,0,1,.85h.15a1,1,0,0,0,.84-1.14A14,14,0,0,1,13.9,22.5a13.86,13.86,0,0,1,2.73-.15,1,1,0,0,0,1-.89,6.49,6.49,0,0,1,9.23-5.22,1,1,0,0,0,.87,0,1,1,0,0,0,.54-.68,17.31,17.31,0,0,1,34.23,4l-.23,1.83c0,.21-.62,5.34,4.44,11.89a17.19,17.19,0,0,0,12.66,6.46c.53,0,2.16,0,2.69-1.48A2.06,2.06,0,0,0,81.6,36Zm-2.19,1.66A15.3,15.3,0,0,1,68.33,32c-4.61-6-4-10.41-4-10.41a20.1,20.1,0,0,1,10,11s-1.73-7.39-6.89-11.74a9.46,9.46,0,0,1,2.36-.28,7.57,7.57,0,0,1,6.44,3.14A14,14,0,0,1,78,29.29c.55,3.75,1.37,7.51,2.13,8.14C80.35,37.58,80,37.69,79.41,37.69Z"/><path class="cls-2" d="M1.17,43.75a1,1,0,1,0,1,1A1,1,0,0,0,1.17,43.75Z"/><path class="cls-2" d="M81,43.75a1,1,0,1,0,1,1A1,1,0,0,0,81,43.75Z"/></g></g></svg>